<?xml version="1.0" encoding="UTF-8" standalone="no"?>
<!-- Created with Inkscape (http://www.inkscape.org/) -->

<svg
   xmlns:dc="http://purl.org/dc/elements/1.1/"
   xmlns:cc="http://creativecommons.org/ns#"
   xmlns:rdf="http://www.w3.org/1999/02/22-rdf-syntax-ns#"
   xmlns:svg="http://www.w3.org/2000/svg"
   xmlns="http://www.w3.org/2000/svg"
   xmlns:sodipodi="http://sodipodi.sourceforge.net/DTD/sodipodi-0.dtd"
   xmlns:inkscape="http://www.inkscape.org/namespaces/inkscape"
   width="744.09448819"
   height="1052.3622047"
   id="svg2"
   version="1.1"
   inkscape:version="0.48.4 r9939"
   sodipodi:docname="SRP.svg">
  <defs
     id="defs4">
    <marker
       inkscape:stockid="Arrow2Mend"
       orient="auto"
       refY="0.0"
       refX="0.0"
       id="Arrow2Mend"
       style="overflow:visible;">
      <path
         id="path3796"
         style="fill-rule:evenodd;stroke-width:0.62500000;stroke-linejoin:round;"
         d="M 8.7185878,4.0337352 L -2.2072895,0.016013256 L 8.7185884,-4.0017078 C 6.9730900,-1.6296469 6.9831476,1.6157441 8.7185878,4.0337352 z "
         transform="scale(0.6) rotate(180) translate(0,0)" />
    </marker>
    <marker
       inkscape:stockid="Arrow1Lend"
       orient="auto"
       refY="0.0"
       refX="0.0"
       id="Arrow1Lend"
       style="overflow:visible;">
      <path
         id="path3772"
         d="M 0.0,0.0 L 5.0,-5.0 L -12.5,0.0 L 5.0,5.0 L 0.0,0.0 z "
         style="fill-rule:evenodd;stroke:#000000;stroke-width:1.0pt;"
         transform="scale(0.8) rotate(180) translate(12.5,0)" />
    </marker>
    <marker
       inkscape:stockid="Arrow1Lstart"
       orient="auto"
       refY="0.0"
       refX="0.0"
       id="Arrow1Lstart"
       style="overflow:visible">
      <path
         id="path3769"
         d="M 0.0,0.0 L 5.0,-5.0 L -12.5,0.0 L 5.0,5.0 L 0.0,0.0 z "
         style="fill-rule:evenodd;stroke:#000000;stroke-width:1.0pt"
         transform="scale(0.8) translate(12.5,0)" />
    </marker>
  </defs>
  <sodipodi:namedview
     id="base"
     pagecolor="#ffffff"
     bordercolor="#666666"
     borderopacity="1.0"
     inkscape:pageopacity="0.0"
     inkscape:pageshadow="2"
     inkscape:zoom="1.4"
     inkscape:cx="322.07144"
     inkscape:cy="520"
     inkscape:document-units="px"
     inkscape:current-layer="layer1"
     showgrid="false"
     inkscape:window-width="1833"
     inkscape:window-height="1057"
     inkscape:window-x="-8"
     inkscape:window-y="-8"
     inkscape:window-maximized="1" />
  <metadata
     id="metadata7">
    <rdf:RDF>
      <cc:Work
         rdf:about="">
        <dc:format>image/svg+xml</dc:format>
        <dc:type
           rdf:resource="http://purl.org/dc/dcmitype/StillImage" />
        <dc:title></dc:title>
      </cc:Work>
    </rdf:RDF>
  </metadata>
  <g
     inkscape:label="Layer 1"
     inkscape:groupmode="layer"
     id="layer1">
    <path
       style="fill:#aa4400;stroke:#000000;stroke-width:1px;stroke-linecap:butt;stroke-linejoin:miter;stroke-opacity:1"
       d="m 14.285714,453.79075 c 3.956261,-1.55812 3.653971,-5.82434 5.714286,-8.57143 0.808122,-1.07749 2.164184,-1.70221 2.857143,-2.85714 0.774752,-1.29125 0.525064,-3.08104 1.428571,-4.28571 0.638877,-0.85184 2.10422,-0.67565 2.857143,-1.42858 0.752924,-0.75292 0.83793,-1.97118 1.428572,-2.85714 0.909309,-1.36396 1.947833,-1.49318 2.857143,-2.85714 5.249963,-7.87495 -1.249963,-0.80359 2.857142,-2.85714 0.602339,-0.30117 0.826233,-1.12741 1.428572,-1.42858 0.455248,-0.22762 5.866112,0 7.142857,0 0.798181,0 6.29982,-0.28101 7.142857,0 0.952381,0.47619 1.904762,0.95238 2.857143,1.42858 0,0.47619 -0.336717,1.09185 0,1.42857 0.292052,0.29205 3.719297,-0.28321 4.285714,0 0.602339,0.30117 0.789695,1.21561 1.428572,1.42857 1.355262,0.45175 2.857143,0 4.285714,0 2.857143,0 5.714286,0 8.571429,0 2.380951,0 4.761901,0 7.142861,0 0.95238,0 1.93319,0.23098 2.85714,0 2.58563,0.86104 2.65689,-2.3142 4.28571,-2.85714 0.90351,-0.30117 1.9332,0.23098 2.85715,0 1.033,-0.25826 1.90476,-0.95239 2.85714,-1.42858 0.95238,-0.47619 1.97118,-0.83793 2.85714,-1.42857 1.12067,-0.74711 1.65247,-2.2548 2.85714,-2.85714 0.42592,-0.21296 1.00266,0.21296 1.42858,0 4.356507,-2.17826 -2.61278,-1.13252 4.285707,-2.85714 0.92395,-0.23099 1.9332,0.23098 2.85714,0 1.03301,-0.25825 1.97118,-0.83793 2.85715,-1.42857 0.56033,-0.37356 0.77524,-1.26524 1.42857,-1.42858 1.84789,-0.46197 3.80952,0 5.71428,0 3.33334,0 6.66667,0 10,0 1.90476,0 3.80953,0 5.71429,0 0.95238,0 1.95363,-0.30117 2.85714,0 3,1 5.57143,3.28572 8.57143,4.28572 0.45175,0.15058 0.97682,-0.15059 1.42857,0 1.01015,0.33672 1.90476,0.95238 2.85714,1.42857 0.95239,0.47619 1.97118,0.83793 2.85715,1.42857 0.56033,0.37356 0.82623,1.1274 1.42857,1.42857 0.52068,0.26034 6.31972,0 7.14286,0 4.28571,0 8.57142,0 12.85714,0 1.55555,0 4.85626,0 5.71428,0 0.47619,0 0.95239,0 1.42858,0 0.47619,0 1.00265,0.21296 1.42857,0 0.60234,-0.30117 0.95238,-0.95238 1.42857,-1.42857 0.95238,0 1.95363,0.30117 2.85714,0 0.63888,-0.21296 0.95238,-0.95238 1.42857,-1.42857 0.95238,-0.95238 1.65247,-2.2548 2.85715,-2.85714 0.85183,-0.42592 2.06471,0.52828 2.85714,0 0.88596,-0.59065 0.54261,-2.2665 1.42857,-2.85715 0.79243,-0.52828 2.00531,0.42592 2.85714,0 0.42592,-0.21296 -0.33671,-1.09185 0,-1.42857 0.0648,-0.0647 6.46929,0 7.14286,0 5.2381,0 10.47619,0 15.71429,0 1.42857,0 2.85714,0 4.28571,0 1.90476,0 3.83544,-0.31314 5.71429,0 11.12693,1.85449 -4.84248,1.42857 5.71428,1.42857 0.95238,0 1.90476,0 2.85714,0 0.95239,0 1.95364,-0.30117 2.85715,0 0.63887,0.21296 0.95238,0.95238 1.42857,1.42858 0.47619,0.47619 0.95238,0.95238 1.42857,1.42857 0.47619,0.47619 1.1274,0.82623 1.42857,1.42857 0.21296,0.42592 -0.15058,0.97682 0,1.42857 0.33672,1.01015 1.17032,1.82414 1.42857,2.85714 0.2651,1.06038 -0.43849,5.2758 0,5.71429 0.33672,0.33672 1.09186,-0.33672 1.42857,0 0.33672,0.33672 -0.33671,1.09185 0,1.42857 4.38486,4.38486 1.18783,-0.83466 5.71429,1.42857 0.42592,0.21296 -0.33672,1.09185 0,1.42857 0.33672,0.33672 1.00265,-0.21296 1.42857,0 0.60234,0.30117 0.7897,1.21561 1.42857,1.42857 1.80702,0.60234 4.01062,-0.85183 5.71429,0 0.42592,0.21296 -0.33672,1.09186 0,1.42858 0.33672,0.33671 1.00265,-0.21296 1.42857,0 1.20468,0.60233 1.65247,2.2548 2.85714,2.85714 0.42592,0.21296 1.00266,-0.21296 1.42857,0 0.60234,0.30117 0.82624,1.1274 1.42858,1.42857 0.42591,0.21296 1.00265,-0.21296 1.42857,0 3.85533,1.92766 -0.0493,0.64032 1.42857,2.85714 7.11893,7.11893 1.46942,0.12255 2.85714,4.28572 0.67344,2.0203 2.18371,3.69398 2.85714,5.71428 0.15059,0.45176 -0.21295,1.00266 0,1.42857 0.30117,0.60234 1.21562,0.7897 1.42858,1.42858 0.30117,0.9035 -0.30117,1.95363 0,2.85714 0.21295,0.63887 1.1274,0.82623 1.42857,1.42857 0.31784,0.63568 -0.21781,5.06088 0,5.71429 0.21296,0.63887 1.21561,0.78969 1.42857,1.42857 0.30117,0.9035 0,1.90476 0,2.85714 0,0.95238 0,1.90476 0,2.85714 0,3.33334 0,6.66667 0,10 0,2.38095 0,4.76191 0,7.14286 0,0.47619 0,0.95238 0,1.42857 0,0.47619 0.21296,1.00265 0,1.42857 -1.32104,2.64207 -3.12611,0.99721 -5.71429,1.42857 -1.54878,0.25813 -5.58843,1.82086 -7.14285,2.85715 -0.56034,0.37355 -0.7897,1.21561 -1.42858,1.42857 -1.35526,0.45175 -2.85714,0 -4.28571,0 -4.28571,0 -8.57143,0 -12.85714,0 -1.65361,0 -5.86746,-0.31885 -7.14286,0 -0.62524,0.15631 -8.00913,3.86399 -8.57143,4.28571 -1.07749,0.80812 -2.04902,1.77965 -2.85714,2.85715 -0.63888,0.85183 -0.7897,2.0053 -1.42857,2.85714 -1.61625,2.15499 -4.03152,3.61083 -5.71429,5.71428 -1.07256,1.3407 -1.64309,3.07167 -2.85714,4.28572 -0.75292,0.75292 -2.00531,0.78969 -2.85714,1.42857 -1.0775,0.80812 -1.65247,2.2548 -2.85715,2.85714 -0.85183,0.42592 -1.92325,-0.18677 -2.85714,0 -4.07316,0.81463 -7.39986,3.27854 -11.42857,4.28572 -0.92395,0.23098 -2.00531,-0.42592 -2.85714,0 -0.60234,0.30117 -0.82624,1.1274 -1.42858,1.42857 -0.42591,0.21296 -0.95238,0 -1.42857,0 -0.47619,0.47619 -0.82623,1.1274 -1.42857,1.42857 -0.85183,0.42592 -2.18371,-0.67344 -2.85714,0 -0.33672,0.33672 0.42592,1.21561 0,1.42857 -0.85184,0.42592 -1.9332,-0.23099 -2.85714,0 -1.03301,0.25825 -1.84699,1.09185 -2.85715,1.42857 -0.9035,0.30117 -2.0053,-0.42592 -2.85714,0 -0.60234,0.30117 -0.82623,1.1274 -1.42857,1.42857 -0.42592,0.21296 -0.95238,0 -1.42857,0 -0.47619,0 -0.95238,0 -1.42857,0 -2.85715,0 -5.71429,0 -8.57143,0 -0.47619,0 -1.09186,0.33672 -1.42857,0 -0.33672,-0.33671 0.33671,-1.09185 0,-1.42857 -3.45949,-1.72974 -2.10422,-0.67565 -4.28572,-2.85714 -0.47619,-0.47619 -0.95238,-0.95238 -1.42857,-1.42857 -0.47619,-0.95238 -0.67565,-2.10422 -1.42857,-2.85714 -0.75292,-0.75293 -2.10422,-0.67565 -2.85714,-1.42858 -0.75293,-0.75292 -0.67565,-2.10422 -1.42858,-2.85714 -0.75292,-0.75292 -2.0053,-0.78969 -2.85714,-1.42857 -1.07749,-0.80812 -1.90476,-1.90476 -2.85714,-2.85714 -0.47619,-0.47619 -0.82623,-1.12741 -1.42857,-1.42857 -1.34687,-0.67344 -2.93885,-0.75514 -4.28572,-1.42858 -1.20467,-0.60233 -1.57939,-2.43122 -2.85714,-2.85714 -0.90351,-0.30117 -1.95363,0.30117 -2.85714,0 -0.63888,-0.21296 -0.82624,-1.1274 -1.42857,-1.42857 -0.42592,-0.21296 -0.97682,0.15058 -1.42858,0 -1.01015,-0.33672 -1.84699,-1.09185 -2.85714,-1.42857 -0.85706,-0.28569 -6.00292,0 -7.14286,0 -5.23809,0 -10.47619,0 -15.71428,0 -3.33333,0 -6.66667,0 -10,0 -1.42857,0 -2.899797,0.34648 -4.285717,0 -0.65332,-0.16333 -0.82623,-1.1274 -1.42857,-1.42857 -0.85183,-0.42592 -2.1837,0.67343 -2.85714,0 -0.33672,-0.33672 0.21296,-1.00266 0,-1.42857 -0.30117,-0.60234 -1.1274,-0.82624 -1.42857,-1.42858 -0.21296,-0.42591 0.11549,-0.9666 0,-1.42857 -0.36522,-1.46088 -0.86932,-2.88757 -1.42857,-4.28571 -0.39546,-0.98864 -1.03312,-1.86851 -1.42857,-2.85714 -0.55926,-1.39815 -0.86932,-2.88758 -1.42858,-4.28572 -1.36854,-3.42135 -2.91717,-3.72151 -4.28571,-7.14286 -0.55926,-1.39814 -0.59328,-3.03277 -1.42857,-4.28571 -0.26414,-0.39621 -1.00266,0.21296 -1.42857,0 -0.60234,-0.30117 -0.95238,-0.95238 -1.42857,-1.42857 -0.47619,-0.47619 -1.12741,-0.82623 -1.42858,-1.42857 -0.21295,-0.42592 0.33672,-1.09186 0,-1.42857 -0.67343,-0.67344 -2.0053,0.42591 -2.85714,0 -0.60234,-0.30117 -0.82623,-1.12741 -1.42857,-1.42858 -0.425918,-0.21296 -1.002654,0.21296 -1.428571,0 -0.602339,-0.30117 -0.826233,-1.1274 -1.428572,-1.42857 -0.425918,-0.21296 -0.952381,0 -1.428571,0 -1.428572,0 -2.857143,0 -4.285715,0 -0.958448,0 -9.833102,0 -10,0 -10.47619,0 -20.95238,0 -31.428571,0 -0.346467,0 -4.239772,0.046 -4.285714,0 -0.336718,-0.33672 0.336717,-1.09185 0,-1.42857 -0.336718,-0.33672 -1.091854,0.33672 -1.428572,0 -0.336717,-0.33672 0,-0.95238 0,-1.42857 0,-0.47619 0,-0.95238 0,-1.42857 0,-0.95238 0,-3.80953 0,-2.85714 0,0.95238 0,3.80952 0,2.85714 0,-0.21001 0.228924,-9.31323 0,-10 -0.810923,-2.43277 -1.904762,-4.76191 -2.857143,-7.14286 z"
       id="path2987"
       inkscape:connector-curvature="0" />
    <path
       style="fill:#aa4400;stroke:#000000;stroke-width:1px;stroke-linecap:butt;stroke-linejoin:miter;stroke-opacity:1"
       d="m 370,435.21933 c 0,-14.23786 -1.34687,-1.59198 1.42857,-7.14286 0.21296,-0.42592 -0.21296,-1.00266 0,-1.42857 0.95755,-1.9151 1.89959,-0.94205 2.85714,-2.85715 0.21296,-0.42591 -0.33671,-1.09185 0,-1.42857 0.75293,-0.75292 2.10422,-0.67565 2.85715,-1.42857 0.33671,-0.33672 -0.33672,-1.09185 0,-1.42857 0.33671,-0.33672 1.00265,0.21296 1.42857,0 1.20467,-0.60234 1.57939,-2.43123 2.85714,-2.85714 0.76801,-0.25601 4.50479,0 5.71429,0 4.28571,0 8.57142,0 12.85714,0 0.34647,0 4.23977,-0.046 4.28571,0 0.33672,0.33671 -0.42591,1.21561 0,1.42857 1.14286,0.57143 3.14286,-0.57143 4.28572,0 0.60234,0.30117 0.78969,1.21561 1.42857,1.42857 1.80701,0.60234 3.84651,-0.37356 5.71428,0 1.47661,0.29532 2.82483,1.06335 4.28572,1.42857 1.20944,0.30236 4.23105,0 5.71428,0 1.42858,0 2.85715,0 4.28572,0 0.47619,0 0.95238,0 1.42857,0 0.47619,0 1.00265,0.21296 1.42857,0 1.20468,-0.60234 1.73648,-2.11003 2.85714,-2.85714 0.88597,-0.59064 1.97118,-0.83793 2.85715,-1.42857 2.61391,-1.74261 0.14252,-1.82135 4.28571,-2.85715 0.92395,-0.23098 1.95364,0.30117 2.85714,0 0.63888,-0.21296 0.7897,-1.21561 1.42858,-1.42857 1.35526,-0.45175 2.85714,0 4.28571,0 1.01257,0 8.20207,-0.18468 8.57143,0 1.20468,0.60234 1.65246,2.25481 2.85714,2.85715 0.42592,0.21295 1.21561,-0.42592 1.42857,0 0.42592,0.85183 0,1.90476 0,2.85714 0,3.96159 -0.21296,-2.28041 1.42857,4.28571 0.23099,0.92395 0,1.90476 0,2.85715 0,0.95238 0,1.90476 0,2.85714 0,3.33333 0,6.66666 0,10 0,0.95238 0,1.90476 0,2.85714 0,0.47619 0.33672,1.09185 0,1.42857 -0.33671,0.33672 -1.00265,-0.21296 -1.42857,0 -1.26619,0.6331 -2.98526,3.41875 -4.28571,4.28572 -0.88596,0.59064 -1.97118,0.83793 -2.85714,1.42857 -1.23272,0.82181 -3.16988,3.16987 -4.28572,4.28571 -0.47619,0.47619 -0.95238,0.95238 -1.42857,1.42857 -0.47619,0.47619 -1.1274,0.82624 -1.42857,1.42858 -0.21296,0.42591 0,0.95238 0,1.42857 0,2.85714 0,5.71428 0,8.57143 0,0.47619 -0.33672,1.09185 0,1.42857 0.33672,0.33671 1.00265,-0.21296 1.42857,0 3.15865,1.57932 0.44332,0.88663 1.42857,2.85714 2.97269,5.94537 -0.0986,-1.52719 2.85714,1.42857 0.33672,0.33672 -0.33671,1.09185 0,1.42857 0.33672,0.33672 1.09186,-0.33672 1.42858,0 0.0575,0.0575 0,5.18966 0,5.71429 0,3.80952 0,7.61905 0,11.42857 0,0.47619 0,0.95238 0,1.42857 0,0.47619 0.33671,1.09185 0,1.42857 -0.33672,0.33672 -1.09186,-0.33672 -1.42858,0 -2.95576,2.95577 4.51681,-0.11554 -1.42857,2.85715 -0.85183,0.42591 -2.0053,-0.42592 -2.85714,0 -0.60234,0.30116 -0.82623,1.1274 -1.42857,1.42857 -0.43476,0.21738 -3.64235,0 -4.28572,0 -3.33333,0 -6.66666,0 -10,0 -2.38095,0 -4.7619,0 -7.14285,0 -0.47619,0 -0.95238,0 -1.42857,0 -0.47619,0 -1.00266,0.21296 -1.42858,0 -0.60233,-0.30117 -0.82623,-1.12741 -1.42857,-1.42857 -0.42591,-0.21296 -1.00265,0.21295 -1.42857,0 -1.20468,-0.60234 -1.57939,-2.43123 -2.85714,-2.85715 -0.90351,-0.30117 -2.18371,0.67344 -2.85714,0 -0.67344,-0.67343 0.67343,-2.18371 0,-2.85714 -0.67344,-0.67344 -1.95364,0.30117 -2.85715,0 -4.45903,-1.48634 0.47619,-0.95238 -1.42857,-2.85714 -0.33672,-0.33672 -1.09185,0.33671 -1.42857,0 -0.33672,-0.33672 0.33672,-1.09186 0,-1.42857 -0.0459,-0.046 -3.93925,0 -4.28571,0 -5.71429,0 -11.42858,0 -17.14286,0 -0.99363,0 -6.62624,0.2583 -7.14286,0 -0.60234,-0.30117 -0.82623,-1.12741 -1.42857,-1.42858 -0.42592,-0.21296 -1.09185,0.33672 -1.42857,0 -0.33672,-0.33671 0.21296,-1.00265 0,-1.42857 -0.30117,-0.60234 -1.1274,-0.82623 -1.42857,-1.42857 -0.21296,-0.42592 0.21296,-1.00265 0,-1.42857 -0.30117,-0.60234 -1.1274,-0.82623 -1.42857,-1.42857 -0.3875,-0.77498 0.39088,-5.3234 0,-5.71429 -0.33672,-0.33672 -1.09186,0.33672 -1.42858,0 -0.67343,-0.67343 0.42592,-2.00531 0,-2.85714 -0.30116,-0.60234 -1.1274,-0.82623 -1.42857,-1.42857 -0.21296,-0.42592 0.33672,-1.09186 0,-1.42857 -0.33671,-0.33672 -1.09185,0.33671 -1.42857,0 -0.67343,-0.67344 0.67344,-2.18371 0,-2.85715 -2.95576,-2.95576 0.11554,4.5168 -2.85714,-1.42857 -0.42592,-0.85183 0.67343,-2.18371 0,-2.85714 -0.33672,-0.33672 -1.09186,0.33672 -1.42857,0 -0.33672,-0.33672 0,-0.95238 0,-1.42857 0,-0.47619 0,-0.95238 0,-1.42857 0,-3.33334 0,-6.66667 0,-10 0,-1.34671 -0.22104,-2.95948 0,-4.28572 0.39918,-2.39507 0.95238,-4.7619 1.42857,-7.14285 z"
       id="path2989"
       inkscape:connector-curvature="0" />
    <path
       sodipodi:type="arc"
       style="fill:#ffff00;fill-opacity:1;stroke:#000000"
       id="path2993"
       sodipodi:cx="660"
       sodipodi:cy="610.93359"
       sodipodi:rx="37.142857"
       sodipodi:ry="35.714287"
       d="m 697.14286,610.93359 a 37.142857,35.714287 0 1 1 -74.28572,0 37.142857,35.714287 0 1 1 74.28572,0 z"
       transform="translate(30,12.857143)" />
    <path
       style="fill:none;stroke:#000000;stroke-width:1px;stroke-linecap:butt;stroke-linejoin:miter;stroke-opacity:1;marker-start:url(#Arrow1Lstart);marker-end:url(#Arrow1Lend)"
       d="M 419.29303,290.42095 301.94986,478.3087 474.99272,578.58914"
       id="path3763"
       inkscape:connector-curvature="0"
       sodipodi:nodetypes="ccc" />
    <text
       xml:space="preserve"
       style="font-size:23.91873741px;font-style:normal;font-variant:normal;font-weight:normal;font-stretch:normal;text-align:start;line-height:125%;letter-spacing:0px;word-spacing:0px;writing-mode:lr-tb;text-anchor:start;fill:#000000;fill-opacity:1;stroke:none;font-family:Cambria;-inkscape-font-specification:Cambria"
       x="393.95532"
       y="681.23615"
       id="text4403"
       sodipodi:linespacing="125%"
       transform="scale(1.1458878,0.87268579)"><tspan
         sodipodi:role="line"
         id="tspan4405"
         x="393.95532"
         y="681.23615">X</tspan></text>
    <text
       xml:space="preserve"
       style="font-size:23.91873741px;font-style:normal;font-variant:normal;font-weight:normal;font-stretch:normal;text-align:start;line-height:125%;letter-spacing:0px;word-spacing:0px;writing-mode:lr-tb;text-anchor:start;fill:#000000;fill-opacity:1;stroke:none;font-family:Cambria;-inkscape-font-specification:Cambria"
       x="370.03796"
       y="316.2605"
       id="text4407"
       sodipodi:linespacing="125%"
       transform="scale(1.0559438,0.9470201)"><tspan
         sodipodi:role="line"
         id="tspan4409"
         x="370.03796"
         y="316.2605">Y</tspan></text>
    <text
       xml:space="preserve"
       style="font-size:17.26215172px;font-style:normal;font-variant:normal;font-weight:bold;font-stretch:normal;text-align:start;line-height:125%;letter-spacing:0px;word-spacing:0px;writing-mode:lr-tb;text-anchor:start;fill:#000000;fill-opacity:1;stroke:none;font-family:Sans;-inkscape-font-specification:Sans Bold"
       x="733.69141"
       y="623.01086"
       id="text4411"
       sodipodi:linespacing="125%"
       transform="scale(0.91889089,1.0882685)"><tspan
         sodipodi:role="line"
         id="tspan4413"
         x="733.69141"
         y="623.01086">SUN</tspan></text>
    <path
       style="fill:none;stroke:#000000;stroke-width:0.65122080000000004;stroke-linecap:butt;stroke-linejoin:miter;stroke-opacity:1;stroke-miterlimit:4;stroke-dasharray:5.20976639000000040, 5.20976639000000040;stroke-dashoffset:0;marker-mid:none"
       d="M 300.86746,477.16964 691.9897,627.55474"
       id="path4415"
       inkscape:connector-curvature="0" />
    <text
       xml:space="preserve"
       style="font-size:22.50449176px;font-style:normal;font-variant:normal;font-weight:normal;font-stretch:normal;text-align:start;line-height:125%;letter-spacing:0px;word-spacing:0px;writing-mode:lr;text-anchor:start;fill:#000000;fill-opacity:1;stroke:none;font-family:Cambria;-inkscape-font-specification:Cambria"
       x="535.71661"
       y="619.09625"
       id="text4785"
       sodipodi:linespacing="125%"
       transform="scale(1.0791313,0.9266713)"><tspan
         sodipodi:role="line"
         id="tspan4787"
         x="535.71661"
         y="619.09625">d</tspan></text>
    <path
       style="fill:none;stroke:#000000;stroke-width:0.60402244px;stroke-linecap:butt;stroke-linejoin:miter;stroke-opacity:1"
       d="m 581.23058,556.84589 3.98551,-8.96741 4.9819,8.96741"
       id="path4789"
       inkscape:connector-curvature="0" />
    <path
       style="fill:none;stroke:#000000;stroke-width:0.60402244px;stroke-linecap:butt;stroke-linejoin:miter;stroke-opacity:1"
       d="m 521.29036,566.43695 -6.35718,-7.47564 10.24036,-0.60739"
       id="path4789-1"
       inkscape:connector-curvature="0" />
    <path
       style="fill:none;stroke:#000000;stroke-width:0.80344886px;stroke-linecap:butt;stroke-linejoin:miter;stroke-opacity:1"
       d="m 443.26803,533.33879 c 1.88525,9.77 -0.56352,19.5045 -15.19885,18.22614"
       id="path4821"
       inkscape:connector-curvature="0"
       sodipodi:nodetypes="cc" />
    <text
       xml:space="preserve"
       style="font-size:23.91873795px;font-style:normal;font-variant:normal;font-weight:normal;font-stretch:normal;text-align:start;line-height:125%;letter-spacing:0px;word-spacing:0px;writing-mode:lr;text-anchor:start;fill:#000000;fill-opacity:1;stroke:none;font-family:Cambria;-inkscape-font-specification:Cambria"
       x="446.46548"
       y="555.65448"
       id="text4823"
       sodipodi:linespacing="125%"
       transform="scale(0.99958123,1.0004189)"><tspan
         sodipodi:role="line"
         id="tspan4825"
         x="446.46548"
         y="555.65448">α</tspan></text>
    <path
       style="fill:none;stroke:#000000;stroke-width:1.09685373;stroke-linecap:butt;stroke-linejoin:miter;stroke-opacity:1;stroke-miterlimit:4;stroke-dasharray:2.19370747,6.5811224;stroke-dashoffset:0"
       d="M 301.29323,476.87722 275.84963,307.13286"
       id="path4827"
       inkscape:connector-curvature="0" />
    <path
       sodipodi:type="arc"
       style="fill:#aa4400;fill-opacity:1;stroke:#aa4400;stroke-width:1.09685373;stroke-linecap:butt;stroke-linejoin:miter;stroke-miterlimit:4;stroke-opacity:1;stroke-dasharray:2.19370747, 6.5811224;stroke-dashoffset:0"
       id="path4829"
       sodipodi:cx="21.428572"
       sodipodi:cy="342.00504"
       sodipodi:rx="1.4285715"
       sodipodi:ry="1.7857143"
       d="m 22.857143,342.00504 a 1.4285715,1.7857143 0 1 1 -2.857143,0 1.4285715,1.7857143 0 1 1 2.857143,0 z"
       transform="translate(254.28571,-34.285714)" />
    <text
       xml:space="preserve"
       style="font-size:13px;font-style:normal;font-variant:normal;font-weight:bold;font-stretch:normal;text-align:start;line-height:125%;letter-spacing:0px;word-spacing:0px;writing-mode:lr-tb;text-anchor:start;fill:#000000;fill-opacity:1;stroke:none;font-family:Sans;-inkscape-font-specification:Sans Bold"
       x="297.85715"
       y="372.36218"
       id="text4831"
       sodipodi:linespacing="125%"><tspan
         sodipodi:role="line"
         id="tspan4833"
         x="297.85715"
         y="372.36218" /></text>
    <text
       xml:space="preserve"
       style="font-size:19.14333534px;font-style:normal;font-variant:normal;font-weight:normal;font-stretch:normal;text-align:start;line-height:125%;letter-spacing:0px;word-spacing:0px;writing-mode:lr-tb;text-anchor:start;fill:#000000;fill-opacity:1;stroke:none;font-family:Cambria;-inkscape-font-specification:Cambria"
       x="258.92523"
       y="408.67035"
       id="text4843"
       sodipodi:linespacing="125%"
       transform="scale(1.1233665,0.89018142)"><tspan
         sodipodi:role="line"
         id="tspan4845"
         x="258.92523"
         y="408.67035">r</tspan></text>
    <path
       style="fill:none;stroke:#000000;stroke-width:1px;stroke-linecap:butt;stroke-linejoin:miter;stroke-opacity:1;marker-end:url(#Arrow2Mend)"
       d="m 288.57143,350.93361 12.14286,0"
       id="path4847"
       inkscape:connector-curvature="0" />
  </g>
</svg>
