<?xml version="1.0" encoding="UTF-8" standalone="no"?>
<!-- Created with Inkscape (http://www.inkscape.org/) -->

<svg
   xmlns:dc="http://purl.org/dc/elements/1.1/"
   xmlns:cc="http://creativecommons.org/ns#"
   xmlns:rdf="http://www.w3.org/1999/02/22-rdf-syntax-ns#"
   xmlns:svg="http://www.w3.org/2000/svg"
   xmlns="http://www.w3.org/2000/svg"
   xmlns:sodipodi="http://sodipodi.sourceforge.net/DTD/sodipodi-0.dtd"
   xmlns:inkscape="http://www.inkscape.org/namespaces/inkscape"
   width="744.09448819"
   height="1052.3622047"
   id="svg2"
   version="1.1"
   inkscape:version="0.48.4 r9939"
   sodipodi:docname="spherical_harmonic_starting_illustration.svg">
  <defs
     id="defs4">
    <marker
       inkscape:stockid="Arrow1Lend"
       orient="auto"
       refY="0.0"
       refX="0.0"
       id="Arrow1Lend"
       style="overflow:visible;">
      <path
         id="path3768"
         d="M 0.0,0.0 L 5.0,-5.0 L -12.5,0.0 L 5.0,5.0 L 0.0,0.0 z "
         style="fill-rule:evenodd;stroke:#000000;stroke-width:1.0pt;"
         transform="scale(0.8) rotate(180) translate(12.5,0)" />
    </marker>
  </defs>
  <sodipodi:namedview
     id="base"
     pagecolor="#ffffff"
     bordercolor="#666666"
     borderopacity="1.0"
     inkscape:pageopacity="0.0"
     inkscape:pageshadow="2"
     inkscape:zoom="0.98994949"
     inkscape:cx="349.30627"
     inkscape:cy="519.89013"
     inkscape:document-units="px"
     inkscape:current-layer="layer1"
     showgrid="false"
     inkscape:window-width="1855"
     inkscape:window-height="1056"
     inkscape:window-x="65"
     inkscape:window-y="24"
     inkscape:window-maximized="1" />
  <metadata
     id="metadata7">
    <rdf:RDF>
      <cc:Work
         rdf:about="">
        <dc:format>image/svg+xml</dc:format>
        <dc:type
           rdf:resource="http://purl.org/dc/dcmitype/StillImage" />
        <dc:title />
      </cc:Work>
    </rdf:RDF>
  </metadata>
  <g
     inkscape:label="Layer 1"
     inkscape:groupmode="layer"
     id="layer1">
    <path
       style="fill:none;stroke:#000000;stroke-width:1px;stroke-linecap:butt;stroke-linejoin:miter;stroke-opacity:1;marker-end:url(#Arrow1Lend)"
       d="m 263.64981,609.91537 261.62951,0"
       id="path2987"
       inkscape:connector-curvature="0" />
    <path
       style="fill:none;stroke:#000000;stroke-width:1px;stroke-linecap:butt;stroke-linejoin:miter;stroke-opacity:1;marker-end:url(#Arrow1Lend)"
       d="m 264.65997,608.90522 0,-220.21326"
       id="path2989"
       inkscape:connector-curvature="0" />
    <path
       style="fill:none;stroke:#000000;stroke-width:1px;stroke-linecap:butt;stroke-linejoin:miter;stroke-opacity:1;marker-end:url(#Arrow1Lend)"
       d="M 264.65997,608.90522 160.61425,742.24535"
       id="path2991"
       inkscape:connector-curvature="0" />
    <text
       xml:space="preserve"
       style="font-size:18px;font-style:normal;font-weight:normal;line-height:124.00000095%;letter-spacing:0px;word-spacing:0px;fill:#000000;fill-opacity:1;stroke:none;font-family:Sans"
       x="172.7361"
       y="759.41791"
       id="text4205"
       sodipodi:linespacing="124%"><tspan
         sodipodi:role="line"
         id="tspan4207"
         x="172.7361"
         y="759.41791">X</tspan></text>
    <text
       xml:space="preserve"
       style="font-size:18px;font-style:normal;font-weight:normal;line-height:124.00000095%;letter-spacing:0px;word-spacing:0px;fill:#000000;fill-opacity:1;stroke:none;font-family:Sans"
       x="277.7005"
       y="391.21237"
       id="text4205-8"
       sodipodi:linespacing="124%"><tspan
         sodipodi:role="line"
         id="tspan4207-5"
         x="277.7005"
         y="391.21237">Z</tspan></text>
    <text
       xml:space="preserve"
       style="font-size:18px;font-style:normal;font-weight:normal;line-height:124.00000095%;letter-spacing:0px;word-spacing:0px;fill:#000000;fill-opacity:1;stroke:none;font-family:Sans"
       x="519.12695"
       y="636.67944"
       id="text4205-1"
       sodipodi:linespacing="124%"><tspan
         sodipodi:role="line"
         id="tspan4207-9"
         x="519.12695"
         y="636.67944">Y</tspan></text>
    <path
       style="fill:none;stroke:#008000;stroke-width:1;stroke-linecap:butt;stroke-linejoin:miter;stroke-opacity:1;marker-start:none;marker-end:url(#Arrow1Lend);stroke-miterlimit:4;stroke-dasharray:none;stroke-dashoffset:0"
       d="M 265.67012,609.91537 434.36559,483.6463"
       id="path4239"
       inkscape:connector-curvature="0" />
    <path
       style="fill:none;stroke:#000000;stroke-width:1;stroke-linecap:butt;stroke-linejoin:miter;stroke-opacity:1;stroke-miterlimit:4;stroke-dasharray:2,2;stroke-dashoffset:0"
       d="m 435.37575,484.65645 0,191.92899"
       id="path4969"
       inkscape:connector-curvature="0" />
    <path
       style="fill:none;stroke:#000000;stroke-width:1;stroke-linecap:butt;stroke-linejoin:miter;stroke-opacity:1;stroke-miterlimit:4;stroke-dasharray:2,2;stroke-dashoffset:0"
       d="m 435.37575,676.58544 -224.25387,0"
       id="path4971"
       inkscape:connector-curvature="0" />
    <path
       style="fill:none;stroke:#000000;stroke-width:1;stroke-linecap:butt;stroke-linejoin:miter;stroke-opacity:1;stroke-miterlimit:4;stroke-dasharray:2,2;stroke-dashoffset:0"
       d="m 435.37575,675.57528 36.36549,-65.65991"
       id="path4975"
       inkscape:connector-curvature="0" />
    <path
       style="fill:none;stroke:#000000;stroke-width:1;stroke-linecap:butt;stroke-linejoin:miter;stroke-opacity:1;stroke-miterlimit:4;stroke-dasharray:2,2;stroke-dashoffset:0"
       d="m 433.35544,483.6463 -169.70563,0"
       id="path4977"
       inkscape:connector-curvature="0" />
    <path
       style="fill:none;stroke:#000000;stroke-width:1;stroke-linecap:butt;stroke-linejoin:miter;stroke-opacity:1;stroke-miterlimit:4;stroke-dasharray:2,2;stroke-dashoffset:0"
       d="m 264.65997,610.92552 169.70562,63.63961"
       id="path4979"
       inkscape:connector-curvature="0" />
    <path
       style="fill:none;stroke:#000000;stroke-width:1px;stroke-linecap:butt;stroke-linejoin:miter;stroke-opacity:1"
       d="m 253.54829,623.04735 c 13.44328,8.03038 22.57561,7.43887 25.25381,-6.06091"
       id="path4985"
       inkscape:connector-curvature="0"
       sodipodi:nodetypes="cc" />
    <path
       style="fill:none;stroke:#000000;stroke-width:1px;stroke-linecap:butt;stroke-linejoin:miter;stroke-opacity:1"
       d="m 286.88332,619.00674 c 7.05774,-6.73768 14.90622,-13.27768 1.01016,-25.25381"
       id="path4987"
       inkscape:connector-curvature="0"
       sodipodi:nodetypes="cc" />
    <text
       xml:space="preserve"
       style="font-size:18px;font-style:normal;font-weight:normal;line-height:124.00000095%;letter-spacing:0px;word-spacing:0px;fill:#000000;fill-opacity:1;stroke:none;font-family:Sans"
       x="357.59399"
       y="558.39758"
       id="text4989"
       sodipodi:linespacing="124%"><tspan
         sodipodi:role="line"
         id="tspan4991"
         x="357.59399"
         y="558.39758"
         style="font-weight:bold">r</tspan></text>
    <text
       xml:space="preserve"
       style="font-size:18px;font-style:normal;font-weight:normal;line-height:124.00000095%;letter-spacing:0px;word-spacing:0px;fill:#000000;fill-opacity:1;stroke:none;font-family:Sans"
       x="443.01019"
       y="482.12613"
       id="text4205-1-2"
       sodipodi:linespacing="124%"><tspan
         sodipodi:role="line"
         id="tspan4207-9-5"
         x="443.01019"
         y="482.12613">P(x,y,z)</tspan></text>
    <text
       xml:space="preserve"
       style="font-size:18px;font-style:normal;font-weight:normal;line-height:124.00000095%;letter-spacing:0px;word-spacing:0px;fill:#000000;fill-opacity:1;stroke:none;font-family:Sans"
       x="299.00516"
       y="600.82397"
       id="text5014"
       sodipodi:linespacing="124%"><tspan
         sodipodi:role="line"
         id="tspan5016"
         x="299.00516"
         y="600.82397">δ</tspan></text>
    <text
       xml:space="preserve"
       style="font-size:18px;font-style:normal;font-weight:normal;line-height:124.00000095%;letter-spacing:0px;word-spacing:0px;fill:#000000;fill-opacity:1;stroke:none;font-family:Sans"
       x="260.61935"
       y="646.28088"
       id="text5018"
       sodipodi:linespacing="124%"><tspan
         sodipodi:role="line"
         id="tspan5020"
         x="260.61935"
         y="646.28088">λ</tspan></text>
    <path
       style="fill:none;stroke:#d45500;stroke-width:0.5;stroke-linecap:butt;stroke-linejoin:miter;stroke-miterlimit:4;stroke-opacity:1;stroke-dasharray:none"
       d="m 150.51273,542.23514 c 2.60345,-0.41624 4.82182,-2.91598 7.07107,-4.04061 0.30117,-0.15058 0.67998,0.066 1.01015,0 3.73117,-0.74623 5.12186,-1.57925 9.09138,-2.0203 1.33863,-0.14874 2.72581,0.29217 4.04061,0 1.7701,-0.39336 3.31395,-1.49927 5.05076,-2.02031 1.64452,-0.49335 3.37195,-0.6504 5.05077,-1.01015 3.03547,-0.65046 6.00598,-1.67748 9.09137,-2.02031 3.01192,-0.33465 6.06091,0 9.09137,0 9.09138,0 18.18275,0 27.27412,0 4.04061,0 8.08122,0 12.12183,0 1.34687,0 2.69374,0 4.04061,0 1.01015,0 2.09256,-0.37516 3.03046,0 0.88426,0.35371 1.34687,1.34687 2.0203,2.02031 1.01016,0.33672 1.99746,0.7519 3.03046,1.01015 0.65333,0.16333 1.38143,-0.21296 2.02031,0 0.71428,0.2381 1.30602,0.77206 2.0203,1.01015 0.31944,0.10648 0.72999,-0.18677 1.01016,0 0.79242,0.52829 1.34687,1.34687 2.0203,2.02031 2.02031,2.0203 4.04061,4.04061 6.06092,6.06091 0.33671,0.33672 0.61393,0.74601 1.01015,1.01016 0.62647,0.41764 1.39383,0.5925 2.0203,1.01015 0.39622,0.26414 0.67344,0.67343 1.01016,1.01015 1.01015,0.67344 1.98941,1.39568 3.03045,2.02031 0.64563,0.38737 1.39384,0.5925 2.02031,1.01015 0.39621,0.26414 0.58423,0.79719 1.01015,1.01015 0.95238,0.47619 2.07808,0.53396 3.03046,1.01016 0.42592,0.21295 0.67343,0.67343 1.01015,1.01015 0.67344,0.67343 1.34687,1.34687 2.02031,2.0203 1.34687,1.34687 2.69374,2.69374 4.04061,4.04061 0.33671,0.33672 0.58423,0.7972 1.01015,1.01016 0.30117,0.15058 0.70898,-0.15059 1.01015,0 0.42592,0.21295 0.58424,0.79719 1.01015,1.01015 0.22641,0.1132 3.80057,0 4.04061,0 2.35703,0 4.71405,0 7.07107,0 6.39763,0 12.79527,0 19.1929,0 6.73435,0 13.4687,0 20.20305,0 2.02031,0 4.04061,0 6.06092,0 1.01015,0 2.12695,0.45175 3.03045,0 0.85184,-0.42592 1.34687,-1.34687 2.02031,-2.02031 0.33672,-0.33671 0.5584,-0.85957 1.01015,-1.01015 0.63888,-0.21296 1.36698,0.16333 2.02031,0 0.73044,-0.18261 1.34687,-0.67343 2.0203,-1.01015 1.01015,-0.33672 1.98634,-0.80133 3.03046,-1.01015 1.32071,-0.26415 2.69374,0 4.04061,0 2.0203,0 4.04061,0 6.06092,0 1.68358,0 3.36717,0 5.05076,0 0.66378,0 2.46053,-0.18998 3.03046,0 0.71428,0.23809 1.39383,0.5925 2.0203,1.01015 0.79243,0.52828 1.34687,1.34687 2.02031,2.0203 1.68358,1.68359 3.36717,3.36718 5.05076,5.05077 0.33672,0.33671 0.61394,0.74601 1.01015,1.01015 1.11106,0.7407 5.36475,2.33429 6.06092,3.03046 0.23809,0.23809 -0.15059,0.70898 0,1.01015 0.21296,0.42592 0.67343,0.67343 1.01015,1.01015 0.67343,0.67344 1.27662,1.42536 2.0203,2.02031 0.94802,0.75841 2.05922,1.29187 3.03046,2.0203 0.38095,0.28572 0.58424,0.79719 1.01015,1.01015 0.30117,0.15059 0.70899,-0.15058 1.01016,0 1.08588,0.54294 1.90323,1.56942 3.03045,2.02031 0.62527,0.25011 1.39504,-0.25011 2.02031,0 1.12722,0.45089 1.94458,1.47736 3.03046,2.0203 0.30117,0.15059 0.70898,-0.15058 1.01015,0 0.42592,0.21296 0.58423,0.7972 1.01015,1.01016 0.30117,0.15058 0.69072,-0.10648 1.01015,0 0.71429,0.23809 1.30602,0.77205 2.02031,1.01015 0.56993,0.18997 2.36668,0 3.03046,0 3.03045,0 6.06091,0 9.09137,0 2.69374,0 5.38748,0 8.08122,0 1.01015,0 2.02031,0 3.03046,0 0.67343,0 1.36698,0.16333 2.0203,0 2.44261,-0.61065 1.4902,-0.86511 3.03046,-2.02031 10.01715,-7.51286 -1.99987,1.66997 5.05076,-3.03045 0.79243,-0.52829 1.1168,-1.71914 2.02031,-2.02031 0.63888,-0.21296 1.38143,0.21296 2.0203,0 0.45176,-0.15058 0.54818,-0.89466 1.01016,-1.01015 0.97999,-0.245 2.03992,0.19811 3.03045,0 0.73831,-0.14766 1.28987,-0.82754 2.02031,-1.01015 1.30665,-0.32667 2.76286,0.42591 4.04061,0 0.45175,-0.15059 0.5584,-0.85957 1.01015,-1.01016 0.57881,-0.19293 4.10241,0 5.05076,0 0.98895,0 6.14552,-0.18511 7.07107,0 0.7383,0.14766 1.34687,0.67344 2.02031,1.01016 0.67343,0.33671 1.41796,0.55839 2.0203,1.01015 0.0277,0.0208 3.79718,3.55373 4.04061,4.04061 0.15059,0.30117 -0.15058,0.70898 0,1.01015 0.21296,0.42592 0.7972,0.58424 1.01016,1.01015 0.15058,0.30117 -0.15059,0.70899 0,1.01016 0.42591,0.85183 1.71913,1.11679 2.0203,2.0203 0.21296,0.63888 -0.21296,1.38143 0,2.02031 0.15058,0.45175 0.89466,0.54818 1.01015,1.01015 0.245,0.97999 -0.16607,2.03405 0,3.03046 0.17505,1.0503 0.8351,1.98015 1.01016,3.03045 1.36508,8.19051 -1.75837,-2.24463 1.01015,6.06092 0.33672,1.01015 0.67343,2.0203 1.01015,3.03046 0.67344,0.67343 1.59439,1.16847 2.02031,2.0203 0.30116,0.60234 -0.16334,1.36698 0,2.02031 0.18261,0.73044 0.73052,1.32123 1.01015,2.0203 0.39545,0.98864 0.7519,1.99746 1.01015,3.03046 0.0817,0.32666 -0.15058,0.70898 0,1.01015 0.54294,1.08588 1.47737,1.94458 2.02031,3.03046 0.15058,0.30117 0,0.67344 0,1.01015 0,0.33672 0,0.67344 0,1.01016 0,2.0203 0,4.04061 0,6.06091 0,0.67344 -0.16334,1.36698 0,2.02031 0.18261,0.73044 0.77205,1.30602 1.01015,2.0203 0.10648,0.31944 0,0.67344 0,1.01015 0,1.01016 -0.19811,2.03992 0,3.03046 0.14766,0.7383 0.82754,1.28986 1.01015,2.02031 0.16333,0.65332 0,1.34687 0,2.0203 0,2.02031 0,4.04061 0,6.06092 0,0.67343 -0.16333,1.36697 0,2.0203 0.25825,1.033 0.80133,1.98634 1.01015,3.03046 0.0803,0.40134 0.16618,5.3962 0,6.06091 -0.32854,1.31419 -1.18429,3.79674 -2.0203,5.05077 -0.32887,0.49331 -3.5473,3.71173 -4.04061,4.04061 -0.62647,0.41764 -1.34687,0.67343 -2.02031,1.01015 -0.67343,0.33672 -1.32123,0.73052 -2.0203,1.01015 -0.98864,0.39546 -1.99746,0.7519 -3.03046,1.01016 -0.32666,0.0817 -0.70898,-0.15059 -1.01015,0 -0.47682,0.2384 -3.9168,2.84146 -5.05076,3.03045 -1.32855,0.22143 -2.70728,-0.19047 -4.04062,0 -1.05409,0.15059 -1.98634,0.80133 -3.03045,1.01016 -1.00325,0.20065 -4.91236,0 -6.06092,0 -4.37733,0 -8.75465,0 -13.13198,0 -3.36718,0 -6.73435,0 -10.10153,0 -1.34687,0 -2.69374,0 -4.04061,0 -0.33671,0 -0.69751,0.12505 -1.01015,0 -1.39814,-0.55926 -2.64247,-1.46105 -4.04061,-2.02031 -0.31263,-0.12505 -0.68349,0.0817 -1.01015,0 -1.033,-0.25825 -2.04182,-0.6147 -3.03046,-1.01015 -0.69907,-0.27963 -1.27763,-0.88638 -2.0203,-1.01015 -1.32855,-0.22143 -2.70728,0.19047 -4.04061,0 -4.25651,-0.60808 -2.05978,-1.31569 -6.06092,-3.03046 -1.27607,-0.54689 -2.70571,-0.62875 -4.04061,-1.01016 -1.02383,-0.29252 -2.04182,-0.61469 -3.03046,-1.01015 -2.09721,-0.83888 -3.9637,-2.19157 -6.06091,-3.03046 -0.31264,-0.12505 -0.68349,0.0817 -1.01016,0 -1.033,-0.25825 -1.98634,-0.80132 -3.03045,-1.01015 -1.6509,-0.33018 -3.39009,0.27678 -5.05077,0 -1.0503,-0.17505 -1.97388,-0.87808 -3.03045,-1.01015 -1.67059,-0.20882 -3.36718,0 -5.05077,0 -3.36717,0 -6.73435,0 -10.10152,0 -2.69374,0 -5.38748,0 -8.08122,0 -0.33672,0 -0.68349,0.0817 -1.01015,0 -1.03301,-0.25825 -1.98635,-0.80133 -3.03046,-1.01015 -1.00338,-0.20068 -5.3212,0 -6.06092,0 -3.36717,0 -6.73435,0 -10.10152,0 -2.35703,0 -4.71405,0 -7.07107,0 -0.67344,0 -1.34687,0 -2.02031,0 -0.33671,0 -0.69071,-0.10648 -1.01015,0 -0.71428,0.23809 -1.32123,0.73052 -2.0203,1.01015 -0.98864,0.39545 -2.07808,0.53396 -3.03046,1.01015 -0.42592,0.21296 -0.67344,0.67344 -1.01015,1.01015 -1.56019,1.56019 -3.38481,3.8608 -5.05077,5.05077 -1.22535,0.87525 -2.69374,1.34687 -4.04061,2.0203 -0.67343,0.33672 -1.41796,0.5584 -2.0203,1.01016 -3.75826,2.81869 -0.10674,1.56859 -5.05076,4.04061 -0.95239,0.47619 -2.11741,0.46232 -3.03046,1.01015 -0.81666,0.48999 -1.20365,1.53031 -2.02031,2.0203 -0.91305,0.54784 -2.1174,0.46232 -3.03046,1.01016 -0.81666,0.48999 -1.22787,1.49201 -2.0203,2.0203 -1.25294,0.83529 -2.69374,1.34687 -4.04061,2.02031 -1.34687,0.67343 -2.69374,1.34687 -4.04061,2.0203 -0.67344,0.33672 -1.30602,0.77206 -2.02031,1.01015 -2.32554,0.77519 -4.79505,1.1099 -7.07106,2.02031 -1.12722,0.45089 -1.91457,1.54206 -3.03046,2.0203 -1.27607,0.54689 -2.69374,0.67344 -4.04061,1.01016 -1.34687,1.01015 -2.57885,2.19516 -4.04061,3.03045 -1.96575,1.12329 -5.10293,1.17682 -7.07107,2.02031 -2.23178,0.95648 -3.75741,3.27277 -6.06091,4.04061 -0.13735,0.0458 -5.74985,-0.0444 -6.06092,0 -10.65931,1.52276 1.87247,0.0493 -7.07107,3.03046 -0.95831,0.31943 -2.0203,0 -3.03046,0 -0.67343,0 -1.34687,0 -2.0203,0 -3.24701,0 -5.96309,0.24116 -9.09137,-1.01016 -1.10346,-0.44138 -1.49147,-2.32533 -2.02031,-3.03045 -0.57143,-0.76191 -1.2584,-1.44888 -2.0203,-2.02031 -1.04502,-0.78376 -4.03215,-1.76565 -5.05077,-2.0203 -2.40564,-0.60141 0.72785,1.49538 -3.03045,-1.01016 -0.39622,-0.26414 -0.6292,-0.72443 -1.01016,-1.01015 -0.97124,-0.72843 -2.08244,-1.26189 -3.03045,-2.0203 -0.74369,-0.59495 -1.34687,-1.34687 -2.02031,-2.02031 -1.34687,-1.34687 -2.69374,-2.69374 -4.04061,-4.04061 -1.34687,-1.34687 -2.69374,-2.69374 -4.04061,-4.04061 -0.33672,-0.33672 -0.67343,-0.67343 -1.01015,-1.01015 -0.33672,-0.33672 -0.85957,-0.5584 -1.01015,-1.01015 -0.21296,-0.63888 0.21295,-1.38143 0,-2.02031 -0.30117,-0.90351 -1.59439,-1.16847 -2.02031,-2.0203 -0.15058,-0.30117 0.10648,-0.69072 0,-1.01016 -0.23809,-0.71428 -0.77206,-1.30602 -1.01015,-2.0203 -0.10648,-0.31944 0.0817,-0.68349 0,-1.01015 -0.25825,-1.03301 -0.7519,-1.99746 -1.01015,-3.03046 -0.0817,-0.32667 0,-0.67344 0,-1.01016 0,-1.01015 0.1981,-2.03992 0,-3.03045 -0.14767,-0.7383 -0.67344,-1.34687 -1.01016,-2.02031 -0.67343,-1.34687 -1.54411,-2.61204 -2.0203,-4.04061 -0.10648,-0.31944 0.10648,-0.69071 0,-1.01015 -0.2381,-0.71429 -0.82754,-1.28986 -1.01015,-2.02031 -0.245,-0.97999 0.31943,-2.07214 0,-3.03045 -2.86161,-5.72321 0.37646,1.50584 -1.01016,-4.04061 -0.18261,-0.73045 -0.73052,-1.32124 -1.01015,-2.02031 -0.39545,-0.98864 -0.53396,-2.07808 -1.01015,-3.03046 -1.54026,-3.08052 -0.80082,1.84752 -2.02031,-3.03045 -0.32666,-1.30666 0.42592,-2.76286 0,-4.04061 -0.47619,-1.42858 -1.34687,-2.69374 -2.0203,-4.04061 -0.33672,-0.67344 -0.53981,-1.43238 -1.01016,-2.02031 -0.89242,-1.11553 -2.17331,-1.8876 -3.03045,-3.03046 -0.20203,-0.26937 0.0817,-0.68349 0,-1.01015 -0.25825,-1.033 -0.53396,-2.07808 -1.01016,-3.03046 -0.44766,-0.89533 -2.41741,-2.1109 -3.03045,-3.03045 -0.41765,-0.62647 -0.59251,-1.39384 -1.01016,-2.02031 -0.26414,-0.39621 -0.79719,-0.58423 -1.01015,-1.01015 -0.15058,-0.30117 0.20203,-0.74078 0,-1.01015 -1.14285,-1.52381 -2.69374,-2.69375 -4.04061,-4.04062 -1.68359,-1.68358 -3.19155,-3.56339 -5.05076,-5.05076 -1.25063,-1.0005 -3.74138,-1.45914 -5.05077,-2.0203 -1.38409,-0.59318 -2.78767,-1.18501 -4.04061,-2.02031 -0.79243,-0.52828 -1.20364,-1.53031 -2.0203,-2.0203 -0.91306,-0.54784 -1.99746,-0.75191 -3.03046,-1.01016 -0.32666,-0.0817 -0.72999,0.18678 -1.01015,0 -0.67344,-0.67343 -1.34687,-1.34687 -2.02031,-2.0203 -0.33672,0 -0.70898,0.15058 -1.01015,0 -0.42592,-0.21296 -0.58424,-0.79719 -1.01015,-1.01015 -0.30117,-0.15059 -0.68349,0.0817 -1.01016,0 -1.033,-0.25825 -1.99745,-0.75191 -3.03045,-1.01016 -0.32667,-0.0817 -0.67344,0 -1.01016,0 -1.01015,0 -2.03992,0.19811 -3.03045,0 -0.73831,-0.14766 -1.30602,-0.77205 -2.02031,-1.01015 -0.31944,-0.10648 -0.69752,0.12506 -1.01015,0 -10.99353,-4.39741 -0.9118,-0.27115 -5.05076,-3.03046 0.11503,-1.91366 -2.35703,-0.67343 -3.03046,-1.01015 -0.99402,-0.49701 -3.04659,-3.5436 -4.04061,-4.04061 -0.30117,-0.15058 -0.70898,0.15059 -1.01015,0 -0.42592,-0.21296 -0.67344,-0.67343 -1.01016,-1.01015 -1.01015,-1.01015 -2.0203,-2.02031 -3.03045,-3.03046 -0.67344,-0.67343 -1.22788,-1.49202 -2.02031,-2.0203 -0.62647,-0.41765 -1.48791,-0.47776 -2.0203,-1.01016 -0.5324,-0.53239 -0.59251,-1.39383 -1.01016,-2.0203 -0.26414,-0.39622 -0.79719,-0.58424 -1.01015,-1.01015 -0.15058,-0.30117 0,-0.67344 0,-1.01016 0,-0.68514 -0.2143,-6.21386 0,-7.07106 -0.60885,-1.82832 1.63639,-1.87871 2.02031,-3.03046 0.21295,-0.63888 -0.21296,-1.38143 0,-2.02031 0.67005,-2.01015 0.9428,-0.4714 2.0203,-1.01015 0.42592,-0.21296 0.67344,-0.67343 1.01015,-1.01015 0.33672,-0.33672 0.74601,-0.61394 1.01016,-1.01015 0.41764,-0.62647 0.5925,-1.39384 1.01015,-2.02031 0.26414,-0.39621 0.67343,-0.67344 1.01015,-1.01015 0.33672,-0.33672 0.61394,-0.74601 1.01015,-1.01016 0.62647,-0.41764 1.39384,-0.5925 2.02031,-1.01015 0.39621,-0.26414 0.5584,-0.85957 1.01015,-1.01015 4.37358,-1.45786 -0.37127,1.9311 4.04061,-1.01015 0.39622,-0.26415 0.67344,-1.34687 1.01015,-1.01016 0.33672,0.33672 -1.48634,1.01016 -1.01015,1.01016 1.0648,0 1.99746,-0.7519 3.03046,-1.01016 1.08999,-0.27249 3.85502,0.17083 5.05076,0 1.69967,-0.24281 3.36718,-0.67343 5.05076,-1.01015 z"
       id="path5041"
       inkscape:connector-curvature="0" />
    <path
       style="fill:none;stroke:#d45500;stroke-width:0.5;stroke-linecap:butt;stroke-linejoin:miter;stroke-miterlimit:4;stroke-opacity:1;stroke-dasharray:none"
       d="m 187.88838,532.13362 c 1.01015,1.34687 2.02031,2.69374 3.03046,4.04061 0,0.33671 -0.15059,0.70898 0,1.01015 0.42592,0.85183 1.59439,1.16847 2.0203,2.0203 0.15059,0.30117 -0.15058,0.70899 0,1.01016 2.95315,5.90628 0.89956,1.19941 3.03046,4.04061 0.72843,0.97124 1.2619,2.08244 2.02031,3.03045 0.89242,1.11553 2.0203,2.02031 3.03046,3.03046 1.68358,1.68359 3.36717,3.36718 5.05076,5.05077 1.34687,1.34687 2.69374,2.69374 4.04061,4.04061 0.33672,0.33671 0.61394,0.74601 1.01015,1.01015 0.62647,0.41764 1.30602,0.77206 2.02031,1.01015 0.31943,0.10648 0.74077,-0.20203 1.01015,0 2.21547,1.6616 2.46284,3.39363 5.05076,4.04061 0.65333,0.16333 1.38143,-0.21296 2.02031,0 0.45175,0.15059 0.67343,0.67344 1.01015,1.01015 0.67343,0 1.36698,-0.16333 2.0203,0 2.19028,0.54757 2.86049,2.48289 5.05077,3.03046 0.97999,0.245 2.05046,-0.245 3.03045,0 1.03301,0.25825 1.98634,0.80133 3.03046,1.01015 0.66036,0.13207 1.34687,0 2.02031,0 1.01015,0 2.0203,0 3.03045,0 0.67344,0 1.36698,-0.16333 2.02031,0 0.73044,0.18261 1.30602,0.77206 2.0203,1.01016 1.07961,0.35986 4.19667,-0.42705 5.05077,0 0.85183,0.42591 1.16847,1.59438 2.0203,2.0203 0.60234,0.30117 1.34687,0 2.02031,0 1.01015,0 2.0203,0 3.03046,0 3.70389,0 7.40778,0 11.11167,0 6.24529,0 -0.45983,-0.245 7.07107,1.01015 0.66427,0.11072 1.35995,-0.13207 2.02031,0 1.04411,0.20883 1.99745,0.75191 3.03045,1.01016 0.86422,0.21605 4.04111,0 5.05077,0 0.33671,0 0.69071,-0.10648 1.01015,0 0.71428,0.23809 1.28986,0.82754 2.0203,1.01015 0.3603,0.0901 4.82983,-0.14729 5.05077,0 0.79243,0.52828 1.34687,1.34687 2.0203,2.0203 0.33672,0.33672 0.58424,0.7972 1.01015,1.01016 0.30117,0.15058 0.67344,0 1.01016,0 1.01015,0 2.03405,-0.16607 3.03045,0 1.05031,0.17505 2.02031,0.67343 3.03046,1.01015 1.01015,0.33672 2.07808,0.53396 3.03046,1.01015 1.08588,0.54294 1.98942,1.39568 3.03046,2.02031 0.64562,0.38737 1.39383,0.5925 2.0203,1.01015 0.39622,0.26414 0.58424,0.79719 1.01016,1.01015 0.30116,0.15059 0.67343,0 1.01015,0 0.67343,0.33672 1.41796,0.5584 2.0203,1.01015 0.76191,0.57143 1.20365,1.53031 2.02031,2.02031 0.91305,0.54783 2.07807,0.53396 3.03046,1.01015 0.42591,0.21296 0.58423,0.7972 1.01015,1.01015 0.30117,0.15059 0.68349,-0.0817 1.01015,0 1.033,0.25825 1.98634,0.80133 3.03046,1.01016 0.9713,0.19426 2.05916,-0.19426 3.03046,0 1.34687,0.33671 2.69374,0.67343 4.04061,1.01015 0.33671,0.33672 0.55839,0.85957 1.01015,1.01015 1.27775,0.42592 2.76286,-0.42592 4.04061,0 0.45175,0.15059 0.5584,0.85957 1.01015,1.01015 0.90914,0.30305 2.12132,-0.30304 3.03046,0 0.71428,0.2381 1.28986,0.82755 2.0203,1.01016 0.65333,0.16333 1.34687,0 2.02031,0 0.67343,0 1.34687,0 2.0203,0 2.02031,0 4.04061,0 6.06092,0 6.06091,0 12.12183,0 18.18275,0 3.70389,0 7.40778,0 11.11167,0 0.65124,0 3.82357,0.14469 4.04061,0 0.79243,-0.52829 1.16847,-1.59439 2.02031,-2.02031 0.60234,-0.30117 1.36698,0.16333 2.0203,0 0.73045,-0.18261 1.30602,-0.77206 2.02031,-1.01015 0.31944,-0.10648 0.70898,0.15058 1.01015,0 0.42592,-0.21296 0.58424,-0.79719 1.01015,-1.01015 0.30117,-0.15059 0.67344,0 1.01016,0 0.33671,0 1.01015,-0.33672 1.01015,0 0,0.33671 -1.34687,0 -1.01015,0 1.01015,0 2.0203,0 3.03045,0 0.24005,0 3.81421,-0.11321 4.04061,0 2.16776,1.08387 0.0465,1.10313 1.01016,3.03045 0.42591,0.85184 1.34687,1.34687 2.0203,2.02031 0.67344,0.67343 1.34687,1.34687 2.02031,2.0203 0.33671,0.33672 0.58423,0.7972 1.01015,1.01016 1.62185,0.81092 3.35294,1.38362 5.05076,2.0203 0.997,0.37388 2.07808,0.53396 3.03046,1.01015 1.21218,0.6061 1.81827,2.42437 3.03046,3.03046 0.30117,0.15059 0.70898,-0.15058 1.01015,0 0.42592,0.21296 0.58423,0.7972 1.01015,1.01016 0.30117,0.15058 0.72999,-0.18678 1.01016,0 0.79242,0.52828 1.34687,1.34687 2.0203,2.0203 0.33672,0.33672 0.58423,0.79719 1.01015,1.01015 0.30117,0.15059 0.70899,-0.15058 1.01016,0 0.85183,0.42592 1.2584,1.44888 2.0203,2.02031 0.97124,0.72843 2.05922,1.29187 3.03046,2.0203 0.21006,0.15755 1.93606,1.99223 2.0203,2.02031 0.63888,0.21296 1.38143,-0.21296 2.02031,0 0.45175,0.15058 0.6292,0.72444 1.01015,1.01015 0.97124,0.72843 1.94458,1.47736 3.03046,2.02031 0.30117,0.15058 0.70898,-0.15059 1.01015,0 0.42592,0.21295 0.61394,0.74601 1.01015,1.01015 0.62647,0.41764 1.34687,0.67343 2.02031,1.01015 0.67343,0.33672 1.30602,0.77206 2.0203,1.01015 0.63888,0.21296 1.41797,-0.30117 2.02031,0 1.08588,0.54294 1.94457,1.47737 3.03046,2.02031 0.30117,0.15058 0.67343,0 1.01015,0 0.67343,0 1.34687,0 2.0203,0 1.01016,0 2.02031,0 3.03046,0 0.67344,0 1.35603,-0.11071 2.02031,0 1.36943,0.22824 2.67925,0.73788 4.04061,1.01015 0.99053,0.19811 2.0203,0 3.03045,0 1.68359,0 3.36718,0 5.05077,0 0.45493,0 2.72303,0.15371 3.03045,0 0.42592,-0.21296 0.58424,-0.79719 1.01016,-1.01015 0.60234,-0.30117 1.38143,0.21296 2.0203,0 0.71429,-0.2381 1.32124,-0.73053 2.02031,-1.01015 0.98863,-0.39546 1.99745,-0.75191 3.03046,-1.01016 0.32666,-0.0817 0.70898,0.15059 1.01015,0 0.42592,-0.21296 0.5584,-0.85956 1.01015,-1.01015 0.63888,-0.21296 1.38143,0.21296 2.02031,0 0.9035,-0.30117 1.16847,-1.59439 2.0203,-2.0203 0.30117,-0.15059 0.67344,0 1.01015,0 0.67344,0 1.38143,0.21295 2.02031,0 0.45175,-0.15059 0.67343,-0.67344 1.01015,-1.01016"
       id="path5043"
       inkscape:connector-curvature="0" />
  </g>
</svg>
